<?xml version="1.0" encoding="UTF-8"?>
<svg id="Layer_1" xmlns="http://www.w3.org/2000/svg" version="1.1" viewBox="0 0 1432 369">
  <!-- Generator: Adobe Illustrator 29.7.1, SVG Export Plug-In . SVG Version: 2.1.1 Build 8)  -->
  <defs>
    <style>
      .st0 {
        fill: #f3ff97;
      }

      .st1 {
        fill: #030206;
      }

      .st2 {
        fill: #fff;
      }
    </style>
  </defs>
  <path class="st1" d="M279.5,40.7l-47.8,47.8,47.8,47.8,47.8-47.8-47.8-47.8Z"/>
  <path class="st0" d="M279.5,41.9l46.6,46.6-46.6,46.6-46.6-46.6,46.6-46.6ZM279.5,39.5l-49,49,49,49,49-49-49-49Z"/>
  <path class="st1" d="M274.7,36.2l-47.8,47.8,47.8,47.8,47.8-47.8-47.8-47.8Z"/>
  <path class="st0" d="M274.7,37.4l46.6,46.6-46.6,46.6-46.6-46.6,46.6-46.6ZM274.7,35l-49,49,49,49,49-49-49-49Z"/>
  <path class="st1" d="M269.8,31.9l-47.8,47.8,47.8,47.8,47.8-47.8-47.8-47.8Z"/>
  <path class="st0" d="M269.8,33.1l46.6,46.6-46.6,46.6-46.6-46.6,46.6-46.7ZM269.8,30.7l-49,49,49,49,49-49-49-49Z"/>
  <path class="st1" d="M264.7,27.9l-47.8,47.8,47.8,47.8,47.8-47.8-47.8-47.8Z"/>
  <path class="st0" d="M264.6,29.1l46.6,46.6-46.6,46.6-46.6-46.6,46.6-46.6ZM264.6,26.7l-49,49,49,49,49-49-49-49Z"/>
  <path class="st1" d="M259.5,24.2l-47.8,47.8,47.8,47.8,47.8-47.8-47.8-47.8Z"/>
  <path class="st0" d="M259.4,25.3l46.6,46.6-46.6,46.6-46.6-46.6,46.6-46.6ZM259.4,23l-49,49,49,49,49-49-49-49Z"/>
  <path class="st1" d="M254,20.7l-47.8,47.8,47.8,47.8,47.8-47.8-47.8-47.8Z"/>
  <path class="st0" d="M254.1,21.9l46.6,46.6-46.6,46.6-46.6-46.6,46.6-46.6ZM254.1,19.6l-49,49,49,49,49-49-49-49Z"/>
  <path class="st1" d="M248.5,17.5l-47.8,47.8,47.8,47.8,47.8-47.8-47.8-47.8Z"/>
  <path class="st0" d="M248.6,18.7l46.6,46.6-46.6,46.6-46.6-46.6,46.6-46.6ZM248.6,16.4l-49,49,49,49,49-49-49-49Z"/>
  <path class="st1" d="M242.9,14.7l-47.8,47.8,47.8,47.8,47.8-47.8-47.8-47.8Z"/>
  <path class="st0" d="M243,15.9l46.6,46.6-46.6,46.6-46.6-46.6,46.6-46.6ZM243,13.5l-49,49,49,49,49-49-49-49Z"/>
  <path class="st1" d="M237.2,12l-47.8,47.8,47.8,47.8,47.8-47.8-47.8-47.8Z"/>
  <path class="st0" d="M237.3,13.3l46.6,46.6-46.6,46.6-46.6-46.6,46.6-46.6ZM237.3,10.9l-49,49,49,49,49-49-49-49Z"/>
  <path class="st1" d="M231.4,9.7l-47.8,47.8,47.8,47.8,47.8-47.8-47.8-47.8Z"/>
  <path class="st0" d="M231.4,10.9l46.6,46.6-46.6,46.7-46.6-46.6,46.6-46.7ZM231.4,8.6l-49,49,49,49,49-49-49-49Z"/>
  <path class="st1" d="M225.6,7.7l-47.8,47.8,47.8,47.8,47.8-47.8L225.6,7.7Z"/>
  <path class="st0" d="M225.6,8.9l46.6,46.6-46.6,46.6-46.6-46.6,46.6-46.6ZM225.6,6.5l-49,49,49,49,49-49L225.6,6.5Z"/>
  <path class="st1" d="M219.6,5.9l-47.8,47.8,47.8,47.8,47.8-47.8L219.6,5.9Z"/>
  <path class="st0" d="M219.6,7.1l46.6,46.6-46.6,46.6-46.6-46.6L219.6,7.1ZM219.6,4.8l-49,49,49,49,49-49L219.6,4.8Z"/>
  <path class="st1" d="M213.6,4.5l-47.8,47.8,47.8,47.8,47.8-47.8L213.6,4.5Z"/>
  <path class="st0" d="M213.6,5.6l46.6,46.6-46.6,46.7-46.6-46.6L213.6,5.6ZM213.6,3.3l-49,49,49,49,49-49L213.6,3.3Z"/>
  <path class="st1" d="M207.5,3.2l-47.8,47.8,47.8,47.8,47.8-47.8L207.5,3.2Z"/>
  <path class="st0" d="M207.5,4.4l46.6,46.6-46.6,46.6-46.6-46.6L207.5,4.4ZM207.5,2.1l-49,49,49,49,49-49L207.5,2.1Z"/>
  <path class="st1" d="M201.4,2.3l-47.8,47.8,47.8,47.8,47.8-47.8L201.4,2.3Z"/>
  <path class="st0" d="M201.4,3.5l46.6,46.6-46.6,46.6-46.6-46.6L201.4,3.5ZM201.4,1.1l-49,49,49,49,49-49L201.4,1.1Z"/>
  <path class="st1" d="M195.3,1.7l-47.8,47.8,47.8,47.8,47.8-47.8L195.3,1.7Z"/>
  <path class="st0" d="M195.3,2.8l46.6,46.6-46.6,46.7-46.6-46.6L195.3,2.8ZM195.3.5l-49,49,49,49,49-49L195.3.5Z"/>
  <path class="st1" d="M189.2,1.3l-47.8,47.8,47.8,47.8,47.8-47.8L189.2,1.3Z"/>
  <path class="st0" d="M189.2,2.4l46.6,46.6-46.6,46.6-46.6-46.6L189.2,2.4ZM189.2.1l-49,49,49,49,49-49L189.2.1Z"/>
  <path class="st1" d="M183,1.2l-47.8,47.8,47.8,47.8,47.8-47.8L183,1.2Z"/>
  <path class="st0" d="M183,2.4l46.6,46.6-46.6,46.6-46.6-46.6L183,2.4ZM183,0l-49,49,49,49,49-49L183,0Z"/>
  <path class="st1" d="M176.8,1.4l-47.8,47.8,47.8,47.8,47.8-47.8L176.8,1.4Z"/>
  <path class="st0" d="M176.8,2.6l46.6,46.6-46.6,46.6-46.6-46.6L176.8,2.6ZM176.8.2l-49,49,49,49,49-49L176.8.2Z"/>
  <path class="st1" d="M170.7,1.8l-47.8,47.8,47.8,47.8,47.8-47.8L170.7,1.8Z"/>
  <path class="st0" d="M170.7,3l46.6,46.6-46.6,46.6-46.6-46.6L170.7,3ZM170.7.7l-49,49,49,49,49-49L170.7.7Z"/>
  <path class="st1" d="M164.5,2.6l-47.8,47.8,47.8,47.8,47.8-47.8L164.5,2.6Z"/>
  <path class="st0" d="M164.5,3.8l46.6,46.6-46.6,46.6-46.6-46.6L164.5,3.8ZM164.5,1.4l-49,49,49,49,49-49L164.5,1.4Z"/>
  <path class="st1" d="M158.5,3.6l-47.8,47.8,47.8,47.8,47.8-47.8L158.5,3.6Z"/>
  <path class="st0" d="M158.4,4.8l46.6,46.6-46.6,46.6-46.6-46.6L158.4,4.8ZM158.4,2.4l-49,49,49,49,49-49L158.4,2.4Z"/>
  <path class="st1" d="M152.4,4.9l-47.8,47.8,47.8,47.8,47.8-47.8L152.4,4.9Z"/>
  <path class="st0" d="M152.4,6.1l46.6,46.6-46.6,46.6-46.6-46.6L152.4,6.1ZM152.4,3.7l-49,49,49,49,49-49L152.4,3.7Z"/>
  <path class="st1" d="M146.4,6.5l-47.8,47.8,47.8,47.8,47.8-47.8L146.4,6.5Z"/>
  <path class="st0" d="M146.4,7.7l46.6,46.6-46.6,46.6-46.6-46.6L146.4,7.7ZM146.4,5.3l-49,49,49,49,49-49L146.4,5.3Z"/>
  <path class="st1" d="M140.5,8.4l-47.8,47.8,47.8,47.8,47.8-47.8-47.8-47.8Z"/>
  <path class="st0" d="M140.5,9.5l46.6,46.6-46.6,46.7-46.6-46.6,46.6-46.7ZM140.5,7.2l-49,49,49,49,49-49L140.5,7.2Z"/>
  <path class="st1" d="M134.7,10.5l-47.8,47.8,47.8,47.8,47.8-47.8-47.8-47.8Z"/>
  <path class="st0" d="M134.7,11.6l46.6,46.6-46.6,46.6-46.6-46.6,46.6-46.6ZM134.7,9.3l-49,49,49,49,49-49-49-49Z"/>
  <path class="st1" d="M128.9,12.9l-47.8,47.8,47.8,47.8,47.8-47.8-47.8-47.8Z"/>
  <path class="st0" d="M128.9,14.1l46.6,46.6-46.6,46.6-46.6-46.6,46.6-46.6ZM128.9,11.8l-49,49,49,49,49-49-49-49Z"/>
  <path class="st1" d="M123.2,15.6l-47.8,47.8,47.8,47.8,47.8-47.8L123.2,15.6Z"/>
  <path class="st0" d="M123.2,16.8l46.7,46.6-46.6,46.6-46.7-46.6,46.6-46.6ZM123.2,14.4l-49,49,49,49,49-49L123.2,14.4Z"/>
  <path class="st1" d="M117.6,18.6l-47.8,47.8,47.8,47.8,47.8-47.8-47.8-47.8Z"/>
  <path class="st0" d="M117.6,19.7l46.6,46.6-46.6,46.6-46.6-46.6,46.6-46.6ZM117.6,17.4l-49,49,49,49,49-49-49-49Z"/>
  <path class="st1" d="M112.2,21.8l-47.8,47.8,47.8,47.8,47.8-47.8-47.8-47.8Z"/>
  <path class="st0" d="M112.2,23l46.6,46.6-46.6,46.7-46.6-46.6,46.6-46.7ZM112.2,20.7l-49,49,49,49,49-49-49-49Z"/>
  <path class="st1" d="M106.8,25.4l-47.8,47.8,47.8,47.8,47.8-47.8-47.8-47.8Z"/>
  <path class="st0" d="M106.8,26.6l46.6,46.6-46.6,46.6-46.6-46.6,46.6-46.6ZM106.8,24.2l-49,49,49,49,49-49-49.1-49Z"/>
  <path class="st1" d="M101.6,29.2l-47.8,47.8,47.8,47.8,47.8-47.8-47.8-47.8Z"/>
  <path class="st0" d="M101.7,30.4l46.6,46.6-46.6,46.7-46.6-46.6,46.6-46.7ZM101.7,28l-49,49,49,49,49-49-49-49Z"/>
  <path class="st1" d="M96.6,33.3l-47.8,47.8,47.8,47.8,47.8-47.8-47.8-47.8Z"/>
  <path class="st0" d="M96.6,34.5l46.6,46.6-46.6,46.6-46.6-46.6,46.6-46.6ZM96.6,32.1l-49,49,49,49,49-49-49-49Z"/>
  <path class="st1" d="M91.7,37.7l-47.8,47.8,47.8,47.8,47.8-47.8-47.8-47.8Z"/>
  <path class="st0" d="M91.7,38.8l46.6,46.6-46.6,46.7-46.6-46.6,46.6-46.7ZM91.7,36.5l-49,49,49,49,49-49-49-49Z"/>
  <path class="st1" d="M87,42.3l-47.8,47.8,47.8,47.8,47.8-47.8-47.8-47.8Z"/>
  <path class="st0" d="M87,43.5l46.6,46.6-46.6,46.6-46.6-46.6,46.6-46.6ZM87,41.2l-49,49,49,49,49-49-49-49Z"/>
  <path class="st1" d="M82.5,47.1l-47.8,47.8,47.8,47.8,47.8-47.8-47.8-47.8Z"/>
  <path class="st0" d="M82.5,48.3l46.6,46.6-46.6,46.7-46.6-46.6,46.6-46.7ZM82.5,46l-49,49,49,49,49-49-49-49Z"/>
  <path class="st1" d="M78.3,52.2l-47.8,47.8,47.8,47.8,47.8-47.8-47.8-47.8Z"/>
  <path class="st0" d="M78.3,53.4l46.6,46.6-46.6,46.6-46.6-46.6,46.6-46.6ZM78.3,51l-49,49,49,49,49-49-49-49Z"/>
  <path class="st1" d="M74.4,57.3l-47.8,47.8,47.8,47.8,47.8-47.8-47.8-47.8Z"/>
  <path class="st0" d="M74.4,58.5l46.6,46.6-46.6,46.6-46.6-46.6,46.6-46.6ZM74.4,56.1l-49,49,49,49,49-49-49-49Z"/>
  <path class="st1" d="M70.8,62.6l-47.8,47.8,47.8,47.8,47.8-47.8-47.8-47.8Z"/>
  <path class="st0" d="M70.8,63.8l46.6,46.6-46.6,46.6-46.6-46.6,46.6-46.6ZM70.8,61.4l-49,49,49,49,49-49-49-49Z"/>
  <path class="st1" d="M67.4,68l-47.8,47.8,47.8,47.8,47.8-47.8-47.8-47.8Z"/>
  <path class="st0" d="M67.4,69.2l46.6,46.6-46.6,46.6-46.6-46.6,46.6-46.6ZM67.4,66.8l-49,49,49,49,49-49-49-49Z"/>
  <path class="st1" d="M64.3,73.6l-47.8,47.8,47.8,47.8,47.8-47.8-47.8-47.8Z"/>
  <path class="st0" d="M64.3,74.7l46.6,46.6-46.6,46.6-46.6-46.6,46.6-46.6ZM64.3,72.4L15.3,121.4l49,49,49-49-49-49Z"/>
  <path class="st1" d="M61.5,79.2L13.7,127l47.8,47.8,47.8-47.8-47.8-47.8Z"/>
  <path class="st0" d="M61.6,80.4l46.6,46.6-46.6,46.6L14.9,127l46.6-46.6ZM61.6,78L12.5,127.1l49,49,49-49-49-49Z"/>
  <path class="st1" d="M59.1,84.9l-47.8,47.8,47.8,47.8,47.8-47.8-47.8-47.8Z"/>
  <path class="st0" d="M59.1,86.1l46.6,46.6-46.6,46.6-46.7-46.6,46.7-46.6ZM59.1,83.7l-49,49,49,49,49-49-49-49Z"/>
  <path class="st1" d="M56.8,90.7l-47.8,47.8,47.8,47.8,47.8-47.8-47.8-47.8Z"/>
  <path class="st0" d="M56.8,92l46.6,46.6-46.6,46.6-46.7-46.6,46.7-46.6ZM56.8,89.6L7.8,138.6l49,49,49-49-49-49Z"/>
  <path class="st1" d="M54.9,96.7L7,144.5l47.8,47.8,47.8-47.8-47.8-47.8Z"/>
  <path class="st0" d="M54.8,97.8l46.6,46.6-46.6,46.6-46.6-46.6,46.6-46.6ZM54.8,95.5L5.8,144.5l49,49,49-49-49-49Z"/>
  <path class="st1" d="M53.2,102.6L5.3,150.5l47.8,47.8,47.8-47.8-47.8-47.8Z"/>
  <path class="st0" d="M53.2,103.8l46.6,46.6-46.6,46.6L6.5,150.5l46.6-46.6ZM53.2,101.4L4.2,150.5l49,49,49-49-49-49Z"/>
  <path class="st1" d="M51.8,108.7L4,156.5l47.8,47.8,47.8-47.8-47.8-47.8Z"/>
  <path class="st0" d="M51.8,109.9l46.6,46.6-46.6,46.7L5.2,156.5l46.6-46.6ZM51.8,107.5L2.8,156.5l49,49,49-49-49-49Z"/>
  <path class="st1" d="M50.7,114.8L2.9,162.6l47.8,47.8,47.8-47.8-47.8-47.8Z"/>
  <path class="st0" d="M50.7,115.9l46.6,46.6-46.6,46.6L4,162.6l46.6-46.6ZM50.7,113.6L1.7,162.6l49,49,49-49-49-49Z"/>
  <path class="st1" d="M49.9,120.8L2,168.7l47.8,47.8,47.8-47.8-47.8-47.8Z"/>
  <path class="st0" d="M49.9,122l46.6,46.6-46.6,46.6L3.2,168.7l46.6-46.6ZM49.9,119.7L.8,168.7l49,49,49-49-49-49Z"/>
  <path class="st1" d="M49.3,127L1.5,174.8l47.8,47.8,47.8-47.8-47.8-47.8Z"/>
  <path class="st0" d="M49.3,128.2l46.6,46.6-46.6,46.7L2.7,174.9l46.6-46.7ZM49.3,125.8L.3,174.9l49,49,49-49-49-49Z"/>
  <path class="st1" d="M49,133.1L1.2,181l47.8,47.8,47.8-47.8-47.8-47.8Z"/>
  <path class="st0" d="M49,134.3l46.6,46.6-46.6,46.6L2.4,181l46.6-46.6ZM49,132L0,181l49,49,49-49-49-49Z"/>
  <path class="st1" d="M49,139.3L1.2,187.2l47.8,47.8,47.8-47.8-47.8-47.8Z"/>
  <path class="st0" d="M49,140.5l46.6,46.6-46.6,46.6L2.4,187.1l46.6-46.6ZM49,138.1L0,187.2l49,49,49-49-49-49Z"/>
  <path class="st1" d="M49.3,145.4L1.4,193.3l47.8,47.8,47.8-47.8-47.8-47.8Z"/>
  <path class="st0" d="M49.3,146.6l46.6,46.6-46.6,46.6L2.7,193.3l46.6-46.6ZM49.3,144.3L.3,193.3l49,49,49-49-49-49Z"/>
  <path class="st1" d="M49.8,151.6L2,199.4l47.8,47.8,47.8-47.8-47.8-47.8Z"/>
  <path class="st0" d="M49.9,152.8l46.6,46.6-46.6,46.6L3.2,199.4l46.6-46.6ZM49.9,150.4L.8,199.4l49,49,49-49-49-49Z"/>
  <path class="st1" d="M50.7,157.7L2.8,205.5l47.8,47.8,47.8-47.8-47.8-47.8Z"/>
  <path class="st0" d="M50.7,158.9l46.6,46.6-46.6,46.6L4,205.5l46.6-46.6ZM50.7,156.5L1.7,205.5l49,49,49-49-49-49Z"/>
  <path class="st1" d="M51.8,163.8L4,211.6l47.8,47.8,47.8-47.8-47.8-47.8Z"/>
  <path class="st0" d="M51.8,164.9l46.6,46.6-46.6,46.6L5.2,211.6l46.6-46.7ZM51.8,162.6L2.8,211.6l49,49,49-49-49-49Z"/>
  <path class="st1" d="M53.2,169.8L5.4,217.7l47.8,47.8,47.8-47.8-47.8-47.8Z"/>
  <path class="st0" d="M53.2,171l46.6,46.6-46.6,46.6L6.5,217.6l46.6-46.6ZM53.2,168.7L4.2,217.7l49,49,49-49-49-49Z"/>
  <path class="st1" d="M54.8,175.8L7,223.6l47.8,47.8,47.8-47.8-47.8-47.8Z"/>
  <path class="st0" d="M54.8,177l46.6,46.6-46.6,46.7-46.6-46.6,46.6-46.7ZM54.8,174.6L5.8,223.7l49,49,49-49-49-49Z"/>
  <path class="st1" d="M56.8,181.7l-47.8,47.8,47.8,47.8,47.8-47.8-47.8-47.8Z"/>
  <path class="st0" d="M56.8,182.8l46.6,46.6-46.6,46.6-46.7-46.6,46.7-46.7ZM56.8,180.5L7.8,229.5l49,49,49-49-49-49Z"/>
  <path class="st1" d="M59.1,187.5l-47.8,47.8,47.8,47.8,47.8-47.8-47.8-47.8Z"/>
  <path class="st0" d="M59.1,188.7l46.6,46.6-46.6,46.6-46.7-46.6,46.7-46.6ZM59.1,186.3l-49,49,49,49,49-49-49-49Z"/>
  <path class="st1" d="M61.6,193.3l-47.8,47.8,47.8,47.8,47.8-47.8-47.8-47.8Z"/>
  <path class="st0" d="M61.6,194.4l46.6,46.6-46.6,46.6-46.6-46.6,46.6-46.6ZM61.6,192.1l-49,49,49,49,49-49-49-49Z"/>
  <path class="st1" d="M64.3,198.9l-47.8,47.8,47.8,47.8,47.8-47.8-47.8-47.8Z"/>
  <path class="st0" d="M64.3,200.1l46.6,46.6-46.6,46.6-46.6-46.6,46.6-46.6ZM64.3,197.7l-49,49,49,49,49-49-49-49Z"/>
  <path class="st1" d="M67.4,204.4l-47.8,47.8,47.8,47.8,47.8-47.8-47.8-47.8Z"/>
  <path class="st0" d="M67.4,205.6l46.6,46.6-46.6,46.6-46.6-46.6,46.6-46.6ZM67.4,203.3l-49,49,49,49,49-49-49-49Z"/>
  <path class="st1" d="M70.8,209.9l-47.8,47.8,47.8,47.8,47.8-47.8-47.8-47.8Z"/>
  <path class="st0" d="M70.8,211l46.6,46.6-46.6,46.6-46.6-46.6,46.6-46.6ZM70.8,208.7l-49,49,49,49,49-49-49-49Z"/>
  <path class="st1" d="M74.4,215.1l-47.8,47.8,47.8,47.8,47.8-47.8-47.8-47.8Z"/>
  <path class="st0" d="M74.4,216.3l46.6,46.6-46.6,46.7-46.6-46.6,46.6-46.7ZM74.4,214l-49,49,49,49,49-49-49-49Z"/>
  <path class="st1" d="M78.3,220.3l-47.8,47.8,47.8,47.8,47.8-47.8-47.8-47.8Z"/>
  <path class="st0" d="M78.3,221.5l46.6,46.6-46.6,46.6-46.6-46.6,46.6-46.6ZM78.3,219.1l-49,49,49,49,49-49-49-49Z"/>
  <path class="st1" d="M82.5,225.3l-47.8,47.8,47.8,47.8,47.8-47.8-47.8-47.8Z"/>
  <path class="st0" d="M82.5,226.5l46.6,46.6-46.6,46.6-46.6-46.6,46.6-46.6ZM82.5,224.1l-49,49,49,49,49-49-49-49Z"/>
  <path class="st1" d="M86.9,230.1l-47.8,47.8,47.8,47.8,47.8-47.8-47.8-47.8Z"/>
  <path class="st0" d="M87,231.3l46.6,46.6-46.6,46.7-46.6-46.6,46.6-46.7ZM87,229l-49,49,49,49,49-49-49-49Z"/>
  <path class="st1" d="M91.7,234.8l-47.8,47.8,47.8,47.8,47.8-47.8-47.8-47.8Z"/>
  <path class="st0" d="M91.7,236l46.6,46.6-46.6,46.7-46.6-46.6,46.6-46.7ZM91.7,233.6l-49,49,49,49,49-49-49-49Z"/>
  <path class="st1" d="M96.6,239.1l-47.8,47.8,47.8,47.8,47.8-47.8-47.8-47.8Z"/>
  <path class="st0" d="M96.6,240.4l46.6,46.6-46.6,46.6-46.6-46.6,46.6-46.6ZM96.6,238l-49,49,49,49,49-49-49-49Z"/>
  <path class="st1" d="M101.7,243.2l-47.8,47.8,47.8,47.8,47.8-47.8-47.8-47.8Z"/>
  <path class="st0" d="M101.7,244.4l46.6,46.6-46.6,46.7-46.6-46.6,46.6-46.7ZM101.7,242.1l-49,49,49,49,49-49-49-49Z"/>
  <path class="st1" d="M106.8,247.1l-47.8,47.8,47.8,47.8,47.8-47.8-47.8-47.8Z"/>
  <path class="st0" d="M106.8,248.2l46.6,46.6-46.6,46.6-46.6-46.6,46.6-46.6ZM106.8,245.9l-49,49,49,49,49-49-49.1-49Z"/>
  <path class="st1" d="M112.2,250.6l-47.8,47.8,47.8,47.8,47.8-47.8-47.8-47.8Z"/>
  <path class="st0" d="M112.2,251.8l46.6,46.6-46.6,46.7-46.6-46.6,46.6-46.7ZM112.2,249.5l-49,49,49,49,49-49-49-49Z"/>
  <path class="st1" d="M117.6,253.9l-47.8,47.8,47.8,47.8,47.8-47.8-47.8-47.8Z"/>
  <path class="st0" d="M117.6,255.1l46.6,46.6-46.6,46.6-46.6-46.6,46.6-46.6ZM117.6,252.7l-49,49,49,49,49-49-49-49Z"/>
  <path class="st1" d="M123.2,256.9l-47.8,47.8,47.8,47.8,47.8-47.8-47.8-47.8Z"/>
  <path class="st0" d="M123.2,258l46.7,46.7-46.6,46.6-46.7-46.6,46.6-46.7ZM123.2,255.7l-49,49,49,49,49-49-49.1-49Z"/>
  <path class="st1" d="M128.9,259.5l-47.8,47.8,47.8,47.8,47.8-47.8-47.8-47.8Z"/>
  <path class="st0" d="M128.9,260.7l46.6,46.6-46.6,46.7-46.6-46.6,46.6-46.7ZM128.9,258.4l-49,49,49,49,49-49-49-49Z"/>
  <path class="st1" d="M134.6,261.9l-47.8,47.8,47.8,47.8,47.8-47.8-47.8-47.8Z"/>
  <path class="st0" d="M134.7,263.2l46.6,46.6-46.6,46.6-46.6-46.6,46.6-46.6ZM134.7,260.8l-49,49,49,49,49-49-49-49Z"/>
  <path class="st1" d="M140.5,264.1l-47.8,47.8,47.8,47.8,47.8-47.8-47.8-47.8Z"/>
  <path class="st0" d="M140.5,265.3l46.6,46.6-46.6,46.7-46.6-46.6,46.6-46.7ZM140.5,262.9l-49,49,49,49,49-49-49-49Z"/>
  <path class="st1" d="M146.4,266l-47.8,47.8,47.8,47.8,47.8-47.8-47.8-47.8Z"/>
  <path class="st0" d="M146.4,267.1l46.6,46.6-46.6,46.6-46.6-46.6,46.6-46.6ZM146.4,264.8l-49,49,49,49,49-49-49-49Z"/>
  <path class="st1" d="M152.4,267.6l-47.8,47.8,47.8,47.8,47.8-47.8-47.8-47.8Z"/>
  <path class="st0" d="M152.4,268.7l46.6,46.6-46.6,46.6-46.6-46.6,46.6-46.6ZM152.4,266.4l-49,49,49,49,49-49-49-49Z"/>
  <path class="st1" d="M158.4,268.9l-47.8,47.8,47.8,47.8,47.8-47.8-47.8-47.8Z"/>
  <path class="st0" d="M158.4,270l46.6,46.6-46.6,46.6-46.6-46.6,46.6-46.6ZM158.4,267.6l-49,49,49,49,49-49-49-49Z"/>
  <path class="st1" d="M164.6,269.9l-47.8,47.8,47.8,47.8,47.8-47.8-47.8-47.8Z"/>
  <path class="st0" d="M164.5,271l46.6,46.6-46.6,46.6-46.6-46.6,46.6-46.6ZM164.5,268.7l-49,49,49,49,49-49-49-49Z"/>
  <path class="st1" d="M170.7,270.6l-47.8,47.8,47.8,47.8,47.8-47.8-47.8-47.8Z"/>
  <path class="st0" d="M170.7,271.8l46.6,46.6-46.6,46.7-46.6-46.6,46.6-46.7ZM170.7,269.4l-49,49,49,49,49-49-49-49Z"/>
  <path class="st1" d="M176.8,271.1l-47.8,47.8,47.8,47.8,47.8-47.8-47.8-47.8Z"/>
  <path class="st0" d="M176.8,272.2l46.6,46.6-46.6,46.6-46.6-46.6,46.6-46.6ZM176.8,269.9l-49,49,49,49,49-49-49-49Z"/>
  <path class="st1" d="M183,271.3l-47.8,47.8,47.8,47.8,47.8-47.8-47.8-47.8Z"/>
  <path class="st0" d="M183,272.4l46.6,46.6-46.6,46.6-46.6-46.6,46.6-46.7ZM183,270.1l-49,49,49,49,49-49-49-49Z"/>
  <path class="st1" d="M189.1,271.1l-47.8,47.8,47.8,47.8,47.8-47.8-47.8-47.8Z"/>
  <path class="st0" d="M189.2,272.4l46.6,46.6-46.6,46.7-46.6-46.6,46.6-46.7ZM189.2,270l-49,49,49,49,49-49-49-49Z"/>
  <path class="st1" d="M195.3,270.8l-47.8,47.8,47.8,47.8,47.8-47.8-47.8-47.8Z"/>
  <path class="st0" d="M195.3,272l46.6,46.6-46.6,46.6-46.6-46.6,46.6-46.6ZM195.3,269.6l-49,49,49,49,49-49-49-49Z"/>
  <path class="st1" d="M201.4,270.2l-47.8,47.8,47.8,47.8,47.8-47.8-47.8-47.8Z"/>
  <path class="st0" d="M201.4,271.3l46.6,46.7-46.6,46.6-46.6-46.6,46.6-46.7ZM201.4,269l-49,49,49,49,49-49-49-49Z"/>
  <path class="st1" d="M207.5,269.2l-47.8,47.8,47.8,47.8,47.8-47.8-47.8-47.8Z"/>
  <path class="st0" d="M207.5,270.4l46.6,46.6-46.6,46.6-46.6-46.6,46.6-46.6ZM207.5,268l-49,49,49,49,49-49-49-49Z"/>
  <path class="st1" d="M213.6,268l-47.8,47.8,47.8,47.8,47.8-47.8-47.8-47.8Z"/>
  <path class="st0" d="M213.6,269.2l46.6,46.6-46.6,46.6-46.6-46.6,46.6-46.6ZM213.6,266.8l-49,49,49,49,49-49-49-49Z"/>
  <path class="st1" d="M219.6,266.5l-47.8,47.8,47.8,47.8,47.8-47.8-47.8-47.8Z"/>
  <path class="st0" d="M219.6,267.7l46.6,46.6-46.6,46.6-46.6-46.6,46.6-46.6ZM219.6,265.3l-49,49,49,49,49-49-49-49Z"/>
  <path class="st1" d="M225.5,264.7l-47.8,47.8,47.8,47.8,47.8-47.8-47.8-47.8Z"/>
  <path class="st0" d="M225.6,265.9l46.6,46.6-46.6,46.6-46.6-46.6,46.6-46.6ZM225.6,263.6l-49,49,49,49,49-49-49-49Z"/>
  <path class="st1" d="M231.4,262.7l-47.8,47.8,47.8,47.8,47.8-47.8-47.8-47.8Z"/>
  <path class="st0" d="M231.4,263.9l46.6,46.6-46.6,46.7-46.6-46.6,46.6-46.7ZM231.4,261.5l-49,49,49,49,49-49-49-49Z"/>
  <path class="st1" d="M237.3,260.4l-47.8,47.8,47.8,47.8,47.8-47.8-47.8-47.8Z"/>
  <path class="st0" d="M237.3,261.5l46.6,46.6-46.6,46.6-46.6-46.6,46.6-46.6ZM237.3,259.2l-49,49,49,49,49-49-49-49Z"/>
  <path class="st1" d="M243,257.8l-47.8,47.8,47.8,47.8,47.8-47.8-47.8-47.8Z"/>
  <path class="st0" d="M243,258.9l46.6,46.6-46.6,46.6-46.6-46.6,46.6-46.6ZM243,256.6l-49,49,49,49,49-49-49-49Z"/>
  <path class="st1" d="M248.6,254.9l-47.8,47.8,47.8,47.8,47.8-47.8-47.8-47.8Z"/>
  <path class="st0" d="M248.6,256.1l46.6,46.6-46.6,46.6-46.6-46.6,46.6-46.6ZM248.6,253.7l-49,49,49,49,49-49-49-49Z"/>
  <path class="st1" d="M254.1,251.7l-47.8,47.8,47.8,47.8,47.8-47.8-47.8-47.8Z"/>
  <path class="st0" d="M254.1,252.9l46.6,46.6-46.6,46.6-46.6-46.6,46.6-46.6ZM254.1,250.6l-49,49,49,49,49-49-49-49Z"/>
  <path class="st1" d="M259.4,248.3l-47.8,47.8,47.8,47.8,47.8-47.8-47.8-47.8Z"/>
  <path class="st0" d="M259.4,249.5l46.6,46.6-46.6,46.6-46.6-46.6,46.6-46.6ZM259.4,247.1l-49,49,49,49,49-49-49-49Z"/>
  <path class="st1" d="M264.6,244.6l-47.8,47.8,47.8,47.8,47.8-47.8-47.8-47.8Z"/>
  <path class="st0" d="M264.6,245.7l46.6,46.6-46.6,46.7-46.6-46.6,46.6-46.7ZM264.6,243.4l-49,49,49,49,49-49-49-49Z"/>
  <path class="st1" d="M269.7,240.6l-47.8,47.8,47.8,47.8,47.8-47.8-47.8-47.8Z"/>
  <path class="st0" d="M269.8,241.7l46.6,46.6-46.6,46.6-46.6-46.6,46.6-46.6ZM269.8,239.4l-49,49,49,49,49-49-49-49Z"/>
  <path class="st1" d="M274.7,236.3l-47.8,47.8,47.8,47.8,47.8-47.8-47.8-47.8Z"/>
  <path class="st0" d="M274.7,237.5l46.6,46.6-46.6,46.6-46.6-46.6,46.6-46.6ZM274.7,235.1l-49,49,49,49,49-49-49-49Z"/>
  <path class="st1" d="M279.5,231.7l-47.8,47.8,47.8,47.8,47.8-47.8-47.8-47.8Z"/>
  <path class="st0" d="M279.5,232.9l46.6,46.6-46.6,46.6-46.6-46.6,46.6-46.6ZM279.5,230.5l-49,49,49,49,49-49-49-49Z"/>
  <path class="st2" d="M460,251.1c28.5,0,51-9.4,64.2-31.4l27.7,13.9c-16.5,25.8-48.5,44.3-92.7,44.3-65.5,0-106.7-35.7-106.7-93.8s41.2-93.8,108-93.8,75,18.7,91.2,44l-28,14.2c-13-21.7-35.2-31.4-63.7-31.4-46.2,0-77,22.8-77,67s30.7,67,77,67Z"/>
  <path class="st2" d="M656.8,129.2c47.7,0,77,23,77,66.5v50.3c0,10.4,1.8,18.7,6.2,26.8h-30.2c-3.5-6.1-5.2-12.9-5.2-19.5v-.3c-10.7,13.4-31.7,24.8-59.7,24.8s-68.7-12.1-68.7-48.6,39.2-48.3,68.7-48.3,49,11.4,59.7,24.8v-10.1c0-29.8-18-43.2-53.2-43.2s-36.2,4.6-52,13.9l-10.5-20c17-10.4,43.2-17.2,68-17.2ZM705,231.6v-4.3c-11-19.2-34.2-25-54.7-25s-45.5,4.8-45.5,27.1,27.2,27.3,45.5,27.3,43.7-6.1,54.7-25Z"/>
  <path class="st2" d="M793.3,277.9h-29.2v-138.6h29.2v26.8c12-19.7,34.5-31.9,62.5-31.9,41.7,0,62.5,27.1,62.5,64.5v79.2h-29v-77.1c0-27.3-13.7-42-41-42s-43.2,11.1-55,33.9v85.2Z"/>
  <path class="st2" d="M1051.2,244.5l7.8,20.5c-11.2,7.6-26.5,12.9-42.2,12.9-26.7,0-48-14.4-48-43.2v-76.9h-26.5v-23.5h26.5v-32.1h29.2v32.1h59.7v23.5h-59.7v72.1c0,15.4,11.7,23,26,23s19-3.8,27.2-8.3Z"/>
  <path class="st2" d="M1168.2,277.9c-53,0-85.2-28.6-85.2-74.3s32.2-74.9,85.2-74.9,85.2,28.8,85.2,74.9-32,74.3-85.2,74.3ZM1168.2,253.1c32.5,0,56.7-16.4,56.7-49.6s-24.2-50.1-56.7-50.1-56.5,16.4-56.5,50.1,24.2,49.6,56.5,49.6Z"/>
  <path class="st2" d="M1306.7,277.9h-29.2v-138.6h29.2v26.8c12-19.7,34.5-31.9,62.5-31.9,41.7,0,62.5,27.1,62.5,64.5v79.2h-29v-77.1c0-27.3-13.8-42-41-42s-43.2,11.1-55,33.9v85.2Z"/>
</svg>